<?xml version="1.0" encoding="UTF-8"?>
<!DOCTYPE svg PUBLIC "-//W3C//DTD SVG 1.1//EN" "http://www.w3.org/Graphics/SVG/1.1/DTD/svg11.dtd">
<svg xmlns="http://www.w3.org/2000/svg" version="1.1" width="1024px" height="1024px" style="shape-rendering:geometricPrecision; text-rendering:geometricPrecision; image-rendering:optimizeQuality; fill-rule:evenodd; clip-rule:evenodd" xmlns:xlink="http://www.w3.org/1999/xlink">
<rect x="0" y="0" width="1024" height="1024" fill="#0e0e13"/>
<g><path fill="#0e0e13" stroke="#0e0e13" stroke-width="0.5" d="M 0,0 c 341.33,0 682.67,0 1024,0 c 0,341.33 0,682.67 0,1024 c -341.33,0 -682.67,0 -1024,0 c 0,-341.33 0,-682.67 0,-1024 Z M 620.53,658.66 c 5.21,2.48 9.33,6.19 12.34,11.12 c -1.16,-0.07 -2.24,0.18 -3.22,0.74 c 4.14,4.16 6.02,11.36 6.1,16.9 c 0.27,39.34 0.42,78.68 0.46,118.01 c -0.11,22.14 28.18,17.57 42.28,17.47 c 31.79,0.11 63.58,0.18 95.38,0.21 c 9.32,0 13.48,-1.7 20.75,-6.96 c 0.08,-3.84 1.04,-7.43 2.87,-10.77 c -2.48,-13.42 -0.36,-28.94 -0.74,-42.65 c 0.03,-33.23 -0.58,-66.35 0.47,-99.57 c 0.25,-2.23 -0.25,-3.93 1.29,-5.77 c -4.13,-11.84 -0.54,-59.09 -1.83,-74.8 c 0.92,-3.63 -3.39,-15.56 -0.26,-17.27 c 0.91,-114.28 -0.97,-228.52 0.12,-342.76 c -0.55,-24.43 -22.18,-18.48 -39.52,-18.79 c -49.6,7.98 -110.74,28.22 -120.39,84.94 c -2.77,51.11 -1.87,104.12 -1.8,155.47 c 0.14,10.51 4.88,57.18 -1.2,63.16 c -1.86,2.24 -17.26,9.26 -15.1,11.98 c -0.74,0.29 -1.27,0.79 -1.58,1.5 c -0.71,0.03 -1.37,0.21 -1.99,0.54 c -19.26,10.61 -38.95,19.52 -59.15,28.13 c -1.6,0.69 -3.2,1.39 -4.8,2.09 c -4.27,-2.2 -12.11,0.78 -13.63,5.81 c -1.8,0.8 -3.6,1.6 -5.4,2.38 c -1.56,-1.34 -9.5,0.85 -11.49,1.76 c -1.04,-0.66 -1.52,-0.38 -1.44,0.85 c 0.42,0.7 1.05,1.04 1.88,1.02 c -0.97,0.19 -1.94,0.37 -2.91,0.54 c -8.88,2.13 -18.71,-1.6 -26.64,-5.39 c 1.64,-2.37 -7.16,-6.55 -8.89,-5.99 c -0.17,-2.61 0.05,-5.18 0.67,-7.73 c 2.05,-0.88 4.4,0.36 6.28,-1.4 c -0.68,-0.38 -1.06,-0.93 -1.15,-1.65 c 4.16,-3.34 6.02,-0.59 7.87,-6.75 c 1.36,0.42 12.7,5.27 11.91,1.11 c 2.61,0.64 5.22,0.67 7.84,0.07 c 5.11,4.24 17.68,-4.78 22.55,-6.44 c 3.41,0.32 11.07,-4.7 14.49,-6.01 c 9.67,-3.1 29.17,-10.15 32.9,-20.4 c -1.78,-5.35 0.39,-15.5 -0.64,-21.82 c -0.45,-3.94 -1.09,-9.52 -2.47,-13.2 c -0.12,-0.76 0.15,-1.34 0.8,-1.77 c -1.85,-6.47 -4.01,-13.25 -4.6,-19.94 c -2.29,-1.75 -3.25,-10.64 -6.24,-14.1 c 0.46,-1.63 -4.98,-11.12 -6.21,-12.73 c -4.32,-10.98 -17.15,-27.92 -27.29,-34.31 c -10.58,-10.93 -32.04,-13.41 -45.39,-5.96 c -10.44,5.77 -23.02,15.43 -28.4,26.32 c -0.68,1.95 -1.5,3.84 -2.46,5.66 c 0.18,0.47 0.52,0.63 1.01,0.5 c -0.67,1.11 -1.32,2.22 -1.95,3.35 c 0.09,-0.87 -0.25,-1.14 -1.03,-0.81 c -6.32,6.84 -11.93,21.37 -14.01,29.89 c -2.78,8.34 -6.22,19.02 -7.04,27.15 c -0.81,3.08 -0.47,13.58 -2.37,15.47 c 0.18,0.5 0.46,0.97 0.85,1.41 c -2.81,3.01 0.01,14.43 1.94,17.74 c 1.8,3.65 10.13,7.75 13.62,6.77 c 0.36,-0.1 0.72,-0.2 1.08,-0.3 c 1.38,0.63 2.76,1.27 4.13,1.94 c 0.58,1.81 2.6,2.44 2.73,4.27 c -3.76,0.57 -4.57,3.84 -8,1.64 c -6.46,0.66 -4.1,3.07 -7.35,4.9 c -0.46,-0.34 -0.92,-0.69 -1.38,-1.04 c -1.79,-0.22 -2.06,0.39 -0.82,1.84 c 1.23,1.1 4.47,1.51 3.2,3.84 c -1.18,0.37 -2.24,0.92 -3.2,1.66 c -0.06,1.2 2.1,1.96 0.6,2.83 c -1.62,2.47 -4.58,-1.7 -7.03,-0.2 c -4.55,-2.14 -9.1,-4.29 -13.64,-6.44 c -0.04,-2.8 -3.36,-3.94 -5.36,-5.21 c -8.97,-7.57 -29.89,-8.1 -30.35,-22.14 c 1.18,-92.62 0.3,-185.41 0.25,-278.08 c 0.61,-11.49 -5.74,-20.72 -17.79,-21.22 c -40.49,0 -80.98,-0.01 -121.48,-0.05 c -13.4,-0.71 -21.25,10.86 -20.66,23.28 c 0.04,159 0.15,318 0.32,477 c -1.04,27.31 0.75,54.82 -1.29,82.03 c 0.63,8.34 1.07,16.68 1.31,25.04 c 0.59,3.15 1.98,3.74 3.78,6.07 c 0.56,4.62 12.17,7.85 16.45,7.54 c 15.27,-0.83 29.76,-1.12 45.04,-0.14 c 26.3,-1 49.85,-15.11 68.79,-31.18 c 15.11,-15.06 26.24,-39.81 25.89,-61.16 c -0.2,-20.42 -0.43,-40.84 -0.68,-61.25 c 0.28,-8.79 4,-10.11 11.94,-10.03 c 56.61,1.23 113.28,-0.34 169.89,0.72 c 16.93,0.07 34.96,-2.4 51.2,3.44 c 1.82,-0.69 -1.55,-2.34 -1.01,-3.92 Z"/></g>
<g><path fill="#dbc936" d="M 637.88,682.01 c 0.44,-0.07 0.88,-0.15 1.32,-0.23 c 1.59,0.8 0.77,7.99 1.07,9.76 c 0.04,38.31 0.03,76.61 -0.03,114.92 c 2.13,5.85 2.75,10.15 10.26,10.78 c 43.82,0.08 87.64,0.1 131.45,0.06 c -0.53,0.52 -0.95,1.12 -1.24,1.81 c -2.4,0.26 -4.8,0.38 -7.21,0.34 c -40,-0.11 -80,-0.12 -120,-0.01 c -9.18,-0.2 -14.19,-4.87 -15.03,-13.99 c -0.08,-35.32 -0.09,-70.63 -0.04,-105.95 c 0.06,-5.84 -0.12,-11.67 -0.55,-17.49 Z"/></g>
<g><path fill="#dbca4e" d="M 387.05,507.94 c 5.4,6.6 19.34,11.33 27.01,15.36 c -0.45,0.38 -0.98,0.55 -1.57,0.51 c -9.13,-3.21 -17.57,-7.71 -25.34,-13.5 c -0.32,-0.25 -0.68,-0.36 -1.08,-0.33 c -0.38,-0.88 -0.45,-2.37 0.98,-2.04 Z M 573.72,511.23 c 0.08,0.25 0.16,0.5 0.24,0.74 c -3.14,1.74 -6.32,3.4 -9.54,4.99 c -12.73,5.18 -25.39,10.52 -37.99,16.01 c -3.41,1.37 -6.92,2.45 -10.52,3.24 c -2.62,0.6 -5.23,0.57 -7.84,-0.07 c -4.09,-1.17 -8.08,-2.64 -11.95,-4.4 c -5.33,-2.38 -10.62,-4.81 -15.9,-7.29 c -6.83,-3.02 -13.59,-6.18 -20.29,-9.48 c -0.41,-2.01 2.95,-0.36 3.72,-0.14 c 8.63,4.48 17.37,8.72 26.22,12.72 c 1.64,0.77 3.35,1.28 5.13,1.53 c 1.33,1.99 4.93,2.58 6.96,3.6 c 5.51,1.38 9.05,3.97 15.06,1.88 c 3.49,-1.11 6.94,-2.31 10.34,-3.62 c 1.81,-1.29 6.68,-2.21 7.8,-3.76 c 2.28,-0.87 13.44,-4.24 13.9,-6.25 c 1.91,0.6 12.17,-5 14.92,-5.5 c 2.02,-0.77 7.99,-4.25 9.74,-4.2 Z"/></g>
<g><path fill="#eed945" d="M 791.8,216.02 c 0.32,2.15 0.44,4.31 0.36,6.48 c -0.03,193.33 -0.01,386.67 0.08,580 c 0.44,8.35 -2.69,15.14 -11.53,16.61 c 0.29,-0.69 0.71,-1.29 1.24,-1.81 c 7.51,-3.24 7.67,-7.06 8.29,-14.8 c -0.24,-195.11 -0.37,-390.22 -0.39,-585.32 c 0.71,-0.29 1.36,-0.68 1.95,-1.16 Z"/></g>
<g><path fill="#e7d450" d="M 791.8,216.02 c -0.59,0.48 -1.24,0.87 -1.95,1.16 c -1.06,-6.44 -4.84,-9.86 -11.35,-10.26 c -6.94,0.2 -13.88,0.37 -20.82,0.5 c -9.45,1.41 -18.77,3.45 -27.95,6.1 c -3.17,1.23 -6.41,2.25 -9.71,3.06 c -7.3,2.71 -14.61,5.43 -21.93,8.16 c -7.07,3.54 -14.07,7.2 -21,10.99 c -4.93,3.27 -9.61,6.88 -14.05,10.81 c -3.11,3.83 -6.32,7.59 -9.61,11.26 c -0.49,-0.27 -0.97,-0.55 -1.46,-0.83 c 7.56,-11.13 17.55,-18.83 28.91,-25.8 c 29.8,-14.99 65.89,-27.91 99.63,-26.19 c 5.87,1.53 9.63,5.21 11.29,11.04 Z"/></g>
<g><path fill="#f1dc4c" d="M 244,205.07 c 0.21,0.71 0.7,1.01 1.47,0.91 c 41.99,-0.03 83.99,0 125.98,0.1 c 0.41,0.13 0.56,0.4 0.44,0.8 c -41.94,-0.16 -83.87,-0.11 -125.81,0.17 c -4.56,-0.5 -5.46,1.53 -8.9,3.68 c -3.37,3.95 -2.72,7.2 -4.01,11.79 c -0.05,182.99 -0.08,365.99 -0.09,548.98 c -0.12,1.99 0.08,3.94 0.59,5.84 c -0.4,1.02 -0.58,2.07 -0.54,3.15 c 0.05,8.33 0.05,16.66 0,25 c 0.91,4.62 4.29,10.69 9.38,11.46 c 8.01,0.1 16.01,0.39 23.99,0.87 c 2.68,0.09 5.35,-0.05 8,-0.4 c 3.33,0.58 11.6,0.7 15.02,-0.23 c 3.52,0.21 7.03,0.14 10.54,-0.23 c -0.09,0.58 -0.13,1.16 -0.11,1.75 c -4.47,0.39 -8.96,0.58 -13.45,0.56 c -14.67,0.02 -29.34,-0.07 -44,-0.27 c -5.93,-1.48 -10.03,-6.48 -10.66,-12.5 c -0.06,-195.66 -0.09,-391.33 -0.07,-587 c -0.29,-7.39 5.28,-12.98 12.23,-14.43 Z"/></g>
<g><path fill="#877a1a" d="M 638.68,299.92 c 0.18,1.19 0.3,2.38 0.34,3.59 c 0.01,66.66 -0.05,133.32 -0.17,199.98 c 0.06,0.57 -0.14,1 -0.6,1.27 c -0.27,-65.07 -0.36,-130.16 -0.28,-195.26 c 0.12,-3.22 -0.24,-6.49 0.71,-9.58 Z"/></g>
<g><path fill="#ebd85e" d="M 244,205.07 c 42.16,-0.14 84.33,-0.2 126.5,-0.18 c 7.25,-0.33 13.15,4.62 14.61,11.6 c 0.28,15.19 0.42,30.37 0.41,45.55 c -0.48,-0.03 -0.85,-0.25 -1.11,-0.66 c -0.17,-13.95 -0.18,-27.91 -0.03,-41.87 c -0.1,-0.77 0.1,-3.52 -1.16,-3.46 c -0.34,-3.71 -3.79,-7.06 -7.07,-8.49 c -1.36,-0.54 -2.78,-0.77 -4.26,-0.68 c 0.12,-0.4 -0.03,-0.67 -0.44,-0.8 c -41.99,-0.1 -83.99,-0.13 -125.98,-0.1 c -0.77,0.1 -1.26,-0.2 -1.47,-0.91 Z"/></g>
<g><path fill="#f4de2c" d="M 383.22,216.05 c 1.26,-0.06 1.06,2.69 1.16,3.46 c -0.15,13.96 -0.14,27.92 0.03,41.87 c 0.26,0.41 0.63,0.63 1.11,0.66 c 0.17,79.49 0.19,158.98 0.06,238.47 c -0.22,2.63 0.27,5.11 1.47,7.43 c -1.43,-0.33 -1.36,1.16 -0.98,2.04 c -3.28,-1.69 -2.42,-6.39 -2.76,-9.46 c -0.12,-61.34 -0.04,-122.68 0.25,-184.02 c -0.29,-33.49 -0.4,-66.98 -0.34,-100.45 Z"/></g>
<g><path fill="#dac84b" d="M 416.72,524.75 c 2.6,0.86 5.12,1.92 7.57,3.17 c 4.54,2.15 9.09,4.3 13.64,6.44 c 8.09,3.5 16.12,7.14 24.08,10.93 c 5.25,2.43 10.51,4.82 15.8,7.17 c 4.55,1.97 9.07,4 13.57,6.09 c 7.93,3.79 17.76,7.52 26.64,5.39 c 0.19,0.76 -0.04,1.35 -0.67,1.75 c -2.94,0 -5.89,0 -8.84,-0.01 c -4.39,-0.76 -8.26,-1.82 -12.49,-3.34 c -6.25,-3.22 -12.69,-6.26 -19.28,-8.65 c -7.33,-3.2 -14.55,-6.64 -21.65,-10.33 c -9.55,-3.97 -19.01,-8.19 -28.38,-12.65 c -3.29,-1.8 -6.66,-3.45 -10.1,-4.93 c -0.32,-0.36 -0.28,-0.7 0.11,-1.03 Z M 555.81,549.49 c 0.5,0.46 0.91,0.98 1.23,1.58 c -1.46,0.44 -2.83,1.07 -4.11,1.9 c -2.53,-0.65 -7.73,3.35 -10.7,3.65 c -1.72,1.66 -7.72,2.59 -8.22,4.45 c -1.08,-0.27 -2.16,-0.53 -3.24,-0.79 c 0.4,-0.17 0.8,-0.34 1.21,-0.51 c 1.8,-0.78 3.6,-1.58 5.4,-2.38 c 4.55,-1.93 9.09,-3.87 13.63,-5.81 c 1.6,-0.7 3.2,-1.4 4.8,-2.09 Z"/></g>
<g><path fill="#edd84f" d="M 528.19,380.56 c -0.33,0.25 -0.67,0.5 -1.01,0.75 c -7.36,-2.1 -12.91,-3.46 -20.68,-2.39 c -2.9,1.48 -8.55,1.52 -10.54,3.9 c -11.93,5.11 -17.28,14.77 -26.05,23.56 c -2.86,4.26 -5.75,9.13 -8.21,13.59 c -0.21,0.14 -0.42,0.28 -0.63,0.42 c -0.25,-0.56 -0.61,-1.04 -1.08,-1.44 c 0.68,-1.19 1.35,-2.39 2.02,-3.59 c 0.63,-1.13 1.28,-2.24 1.95,-3.35 c 12.96,-21.75 37.28,-43.65 64.23,-31.45 Z"/></g>
<g><path fill="#f9de04" stroke="#f9de04" stroke-width="0.5" d="M 246.08,207.05 c 0.12,0.74 0.58,1.07 1.37,1 c 42.02,-0.04 84.04,0.04 126.05,0.24 c 0.96,0.04 1.85,-0.21 2.65,-0.73 c 3.28,1.43 6.73,4.78 7.07,8.49 c -0.06,33.47 0.05,66.96 0.34,100.45 c -0.29,61.34 -0.37,122.68 -0.25,184.02 c 0.34,3.07 -0.52,7.77 2.76,9.46 c 0.07,3.2 10.75,8.42 13.49,9.76 c 33.52,14.6 66.11,31.14 99.87,45.19 c 9.84,3.83 26.23,2.52 34.58,-3.86 c 2.61,0.02 17.49,-6.07 18.92,-8.1 c 1.28,-0.83 2.65,-1.46 4.11,-1.9 c 9.33,-4.31 18.79,-8.38 28.36,-12.19 c 8.32,-4.8 17.16,-8.59 25.72,-13 c 2.45,-0.27 13.77,-7.07 16.77,-8.54 c 0.6,-0.34 0.93,-0.86 0.99,-1.55 c 1.33,-0.32 2.57,-0.89 3.69,-1.71 c 4.83,-2.91 7.44,-5.61 7.64,-11.58 c 0.05,-66.16 0.16,-132.32 0.31,-198.48 c 0.46,-5.1 0.79,-10.2 0.97,-15.32 c 1.07,-3.97 2.07,-7.96 3,-11.97 c 2.17,-7.03 5.26,-12.63 8.94,-18.93 c 3.29,-3.67 6.5,-7.43 9.61,-11.26 c 4.44,-3.93 9.12,-7.54 14.05,-10.81 c 6.93,-3.79 13.93,-7.45 21,-10.99 c 7.32,-2.73 14.63,-5.45 21.93,-8.16 c 3.3,-0.81 6.54,-1.83 9.71,-3.06 c 9.18,-2.65 18.5,-4.69 27.95,-6.1 c 6.94,-0.13 13.88,-0.3 20.82,-0.5 c 6.51,0.4 10.29,3.82 11.35,10.26 c 0.02,195.1 0.15,390.21 0.39,585.32 c -0.62,7.74 -0.78,11.56 -8.29,14.8 c -43.81,0.04 -87.63,0.02 -131.45,-0.06 c -7.51,-0.63 -8.13,-4.93 -10.26,-10.78 c 0.06,-38.31 0.07,-76.61 0.03,-114.92 c -0.3,-1.77 0.52,-8.96 -1.07,-9.76 c 0.18,-11.48 -13.89,-26 -25.26,-27.08 c -1.45,-1.78 -7.91,-0.93 -10.24,-1.08 c -3.8,-0.72 -7.6,-0.74 -11.42,-0.06 c -19.66,-0.08 -39.3,-0.04 -58.94,0.12 c -6.04,0.1 -12.02,-1.37 -18.05,-0.1 c -35.53,-0.01 -71.05,-0.01 -106.57,-0.02 c -4.39,-0.67 -8.79,-0.84 -13.22,-0.52 c -1.6,0.52 -3.23,0.85 -4.89,0.98 c -4.13,1.83 -6.42,4.99 -6.85,9.48 c 0.26,24.03 0.26,48.05 -0.01,72.08 c -0.01,0.82 0.18,1.58 0.59,2.29 c -1.29,2.43 -1.2,9.15 -2.32,10.72 c -1.34,5.66 -2.88,11.48 -5.31,16.71 c -1.49,2.84 -2.97,5.7 -4.44,8.56 c -6.73,8.68 -13.18,17.31 -22.77,23.12 c -9.18,7.66 -19.33,11.23 -30.18,15.73 c -6.6,0.58 -12.73,4.58 -19.26,4.25 c -3.51,0.37 -7.02,0.44 -10.54,0.23 c -3.42,0.93 -11.69,0.81 -15.02,0.23 c -2.65,0.35 -5.32,0.49 -8,0.4 c -7.98,-0.48 -15.98,-0.77 -23.99,-0.87 c -5.09,-0.77 -8.47,-6.84 -9.38,-11.46 c 0.05,-8.34 0.05,-16.67 0,-25 c -0.04,-1.08 0.14,-2.13 0.54,-3.15 c -0.51,-1.9 -0.71,-3.85 -0.59,-5.84 c 0.01,-182.99 0.04,-365.99 0.09,-548.98 c 1.29,-4.59 0.64,-7.84 4.01,-11.79 c 3.44,-2.15 4.34,-4.18 8.9,-3.68 Z M 576.99,456.96 c 1.52,11.46 2.82,22.96 3.88,34.5 c 0.64,8.1 -2.44,14.35 -9.24,18.76 c -7.21,3.15 -14.41,6.32 -21.6,9.53 c -0.58,0.2 -0.9,0.59 -0.97,1.18 c -2.24,-0.13 -14.41,3.94 -13.9,6.25 c -3.15,-0.6 -12.67,4.23 -16.17,5.19 c -8.02,2.95 -15.03,-0.74 -22.53,-3.22 c -0.48,-0.13 -0.97,-0.15 -1.46,-0.07 c -0.19,-0.57 -0.57,-0.97 -1.12,-1.2 c -7.67,-3.77 -15.32,-7.59 -22.94,-11.45 c -6.71,-2.93 -13.47,-5.73 -20.28,-8.39 c -4.99,-2.37 -6.39,-7.42 -6.55,-12.55 c -2.38,-16.8 2.74,-34.49 7.26,-50.54 c 0.83,-3.71 11.06,-22.96 10.33,-24.98 c 2.46,-4.46 5.35,-9.33 8.21,-13.59 c 8.77,-8.79 14.12,-18.45 26.05,-23.56 c 4.45,-1.13 8.93,-2.1 13.46,-2.9 c 9.62,-0.34 18.32,2.32 26.11,7.99 c 9.6,6.45 14.44,15.78 21.41,24.58 c 8.94,13.74 14.19,29.41 20.05,44.47 Z"/></g>
<g><path fill="#dccd4f" d="M 384.34,737.87 c 0.36,0.1 0.72,0.21 1.08,0.31 c -3.07,45.74 -43.13,74.13 -85.47,80.53 c -0.02,-0.59 0.02,-1.17 0.11,-1.75 c 6.53,0.33 12.66,-3.67 19.26,-4.25 c 10.85,-4.5 21,-8.07 30.18,-15.73 c 9.59,-5.81 16.04,-14.44 22.77,-23.12 c 1.47,-2.86 2.95,-5.72 4.44,-8.56 c 2.43,-5.23 3.97,-11.05 5.31,-16.71 c 1.12,-1.57 1.03,-8.29 2.32,-10.72 Z"/></g>
<g><path fill="#f4da1f" d="M 246.08,207.05 c 41.94,-0.28 83.87,-0.33 125.81,-0.17 c 1.48,-0.09 2.9,0.14 4.26,0.68 c -0.8,0.52 -1.69,0.77 -2.65,0.73 c -42.01,-0.2 -84.03,-0.28 -126.05,-0.24 c -0.79,0.07 -1.25,-0.26 -1.37,-1 Z"/></g>
<g><path fill="#e5d34e" d="M 616.95,520.82 c 0.55,1.94 -5.29,3.13 -6.12,4.6 c 0.1,0.15 0.2,0.31 0.29,0.46 c -8.56,4.41 -17.4,8.2 -25.72,13 c -9.57,3.81 -19.03,7.88 -28.36,12.19 c -0.32,-0.6 -0.73,-1.12 -1.23,-1.58 c 20.2,-8.61 39.89,-17.52 59.15,-28.13 c 0.62,-0.33 1.28,-0.51 1.99,-0.54 Z"/></g>
<g><path fill="#dbca52" d="M 447.27,449.66 c 2.16,0.38 -1.94,11.25 -2.18,12.98 c -0.93,3.93 -1.74,7.89 -2.44,11.88 c -0.03,1.33 -0.02,2.66 0.03,3.99 c -1.54,6.54 -1.04,14.25 -0.88,20.95 c 0.86,2.82 1.84,5.58 2.95,8.29 c -5.25,-3.35 -4.51,-11.88 -4.63,-17.25 c 0.64,-13.92 3.02,-27.53 7.15,-40.84 Z"/></g>
<g><path fill="#dfcc52" d="M 579.98,461 c 2.43,13.06 5.82,30.05 2.62,43.06 c -1.87,3.7 -4.75,6.34 -8.64,7.91 c -0.08,-0.24 -0.16,-0.49 -0.24,-0.74 c 0.16,-0.43 0.4,-0.81 0.73,-1.13 c 10.29,-5.71 7.66,-17.85 7.35,-27.65 c -0.77,-6.69 -1.69,-13.35 -2.73,-19.99 c -0.24,-0.88 0.06,-1.37 0.91,-1.46 Z"/></g>
<g><path fill="#f2db24" d="M 576.99,456.96 c 1.29,0.04 0.77,1.94 1.62,2.58 c 0.34,-0.2 0.66,-0.44 0.94,-0.73 c 0.19,0.72 0.33,1.45 0.43,2.19 c -0.85,0.09 -1.15,0.58 -0.91,1.46 c 1.04,6.64 1.96,13.3 2.73,19.99 c 0.31,9.8 2.94,21.94 -7.35,27.65 c -0.33,0.32 -0.57,0.7 -0.73,1.13 c -1.75,-0.05 -7.72,3.43 -9.74,4.2 c -2.75,0.5 -13.01,6.1 -14.92,5.5 c 0.07,-0.59 0.39,-0.98 0.97,-1.18 c 7.19,-3.21 14.39,-6.38 21.6,-9.53 c 6.8,-4.41 9.88,-10.66 9.24,-18.76 c -1.06,-11.54 -2.36,-23.04 -3.88,-34.5 Z"/></g>
<g><path fill="#f4de25" d="M 549.06,520.93 c -0.46,2.01 -11.62,5.38 -13.9,6.25 c -0.51,-2.31 11.66,-6.38 13.9,-6.25 Z M 535.16,527.18 c -1.12,1.55 -5.99,2.47 -7.8,3.76 c -3.4,1.31 -6.85,2.51 -10.34,3.62 c -6.01,2.09 -9.55,-0.5 -15.06,-1.88 c -2.03,-1.02 -5.63,-1.61 -6.96,-3.6 c 0.49,-0.08 0.98,-0.06 1.46,0.07 c 7.5,2.48 14.51,6.17 22.53,3.22 c 3.5,-0.96 13.02,-5.79 16.17,-5.19 Z"/></g>
<g><path fill="#decb50" d="M 560.12,413.39 c 0.29,-0.12 0.58,-0.24 0.87,-0.36 c 8.43,14.35 14.62,29.61 18.56,45.78 c -0.28,0.29 -0.6,0.53 -0.94,0.73 c -0.85,-0.64 -0.33,-2.54 -1.62,-2.58 c 1.46,-2.69 -3.47,-12.06 -4.04,-15.33 c -1.36,-3.29 -2.67,-6.6 -3.93,-9.93 c -3.17,-6.02 -6.13,-12.12 -8.9,-18.31 Z"/></g>
<g><path fill="#ded047" d="M 613.94,654.7 c 11.37,1.08 25.44,15.6 25.26,27.08 c -0.44,0.08 -0.88,0.16 -1.32,0.23 c -0.76,-4.45 -2.43,-8.53 -5.01,-12.23 c -3.01,-4.93 -7.13,-8.64 -12.34,-11.12 c -2.71,-1.39 -5.57,-2.32 -8.58,-2.8 c 0.59,-0.52 1.25,-0.9 1.99,-1.16 Z"/></g>
<g><path fill="#dece41" d="M 613.94,654.7 c -0.74,0.26 -1.4,0.64 -1.99,1.16 c -2.47,-0.36 -4.95,-0.57 -7.45,-0.65 c -68.67,0.1 -137.33,0.04 -205.99,-0.16 c -5.79,0.21 -11.91,0.08 -12.68,7.45 c -0.01,25.23 -0.15,50.46 -0.41,75.68 c -0.36,-0.1 -0.72,-0.21 -1.08,-0.31 c -0.41,-0.71 -0.6,-1.47 -0.59,-2.29 c 0.27,-24.03 0.27,-48.05 0.01,-72.08 c 0.43,-4.49 2.72,-7.65 6.85,-9.48 c 1.66,-0.13 3.29,-0.46 4.89,-0.98 c 4.43,-0.32 8.83,-0.15 13.22,0.52 c 35.52,0.01 71.04,0.01 106.57,0.02 c 6.03,-1.27 12.01,0.2 18.05,0.1 c 19.64,-0.16 39.28,-0.2 58.94,-0.12 c 3.82,-0.68 7.62,-0.66 11.42,0.06 c 2.33,0.15 8.79,-0.7 10.24,1.08 Z"/></g>
<g><path fill="#e5d458" d="M 549.03,396.85 c 4.54,4.98 8.53,10.38 11.96,16.18 c -0.29,0.12 -0.58,0.24 -0.87,0.36 c -0.92,-0.7 -1.71,-1.52 -2.36,-2.48 c -3.29,-4.49 -6.57,-8.99 -9.85,-13.47 c 0.24,-0.42 0.61,-0.62 1.12,-0.59 Z"/></g>
<g><path fill="#f2da28" d="M 628.88,515.79 c -0.06,0.69 -0.39,1.21 -0.99,1.55 c -3,1.47 -14.32,8.27 -16.77,8.54 c -0.09,-0.15 -0.19,-0.31 -0.29,-0.46 c 0.83,-1.47 6.67,-2.66 6.12,-4.6 c 0.47,0.19 0.96,0.22 1.45,0.1 c 3.41,-1.88 6.9,-3.6 10.48,-5.13 Z"/></g>
<g><path fill="#e4d056" d="M 459.99,418.95 c 0.47,0.4 0.83,0.88 1.08,1.44 c -2.87,4.17 -4.67,10.41 -7.18,14.98 c -0.47,0.51 -1.06,0.76 -1.75,0.75 c 2.19,-5.92 4.81,-11.64 7.85,-17.17 Z"/></g>
<g><path fill="#f3db25" d="M 552.93,552.97 c -1.43,2.03 -16.31,8.12 -18.92,8.1 c 0.5,-1.86 6.5,-2.79 8.22,-4.45 c 2.97,-0.3 8.17,-4.3 10.7,-3.65 Z"/></g>
<g><path fill="#ddcb55" d="M 628.8,513.66 c 0.35,0.18 0.6,0.45 0.75,0.81 c -0.24,0.43 -0.47,0.87 -0.67,1.32 c -3.58,1.53 -7.07,3.25 -10.48,5.13 c -0.49,0.12 -0.98,0.09 -1.45,-0.1 c 0.31,-0.71 0.84,-1.21 1.58,-1.5 c 3.34,-2.04 6.77,-3.93 10.27,-5.66 Z"/></g>
<g><path fill="#ecd94a" d="M 651.97,256.97 c 0.49,0.28 0.97,0.56 1.46,0.83 c -3.68,6.3 -6.77,11.9 -8.94,18.93 c -0.93,4.01 -1.93,8 -3,11.97 c -0.18,5.12 -0.51,10.22 -0.97,15.32 c -0.15,66.16 -0.26,132.32 -0.31,198.48 c -0.2,5.97 -2.81,8.67 -7.64,11.58 c -1.12,0.82 -2.36,1.39 -3.69,1.71 c 0.2,-0.45 0.43,-0.89 0.67,-1.32 c -0.15,-0.36 -0.4,-0.63 -0.75,-0.81 c 3.56,-2.19 8.54,-4.34 9.45,-8.9 c 0.46,-0.27 0.66,-0.7 0.6,-1.27 c 0.12,-66.66 0.18,-133.32 0.17,-199.98 c -0.04,-1.21 -0.16,-2.4 -0.34,-3.59 c 0.66,-15.1 4.76,-30.35 13.29,-42.95 Z"/></g>
<g><path fill="#e0cd4f" d="M 527.18,381.31 c 0.34,-0.25 0.68,-0.5 1.01,-0.75 c 4.7,2.19 9,4.97 12.93,8.35 c -0.23,0.54 -0.62,0.69 -1.16,0.45 c -3.9,-2.56 -7.77,-6.14 -12.35,-7.44 c -0.24,-0.15 -0.38,-0.35 -0.43,-0.61 Z"/></g>
<g><path fill="#f2db2d" d="M 527.18,381.31 c 0.05,0.26 0.19,0.46 0.43,0.61 c 4.58,1.3 8.45,4.88 12.35,7.44 c 0.54,0.24 0.93,0.09 1.16,-0.45 c 2.86,2.42 5.5,5.06 7.91,7.94 c -0.51,-0.03 -0.88,0.17 -1.12,0.59 c 3.28,4.48 6.56,8.98 9.85,13.47 c 0.65,0.96 1.44,1.78 2.36,2.48 c 2.77,6.19 5.73,12.29 8.9,18.31 c 1.26,3.33 2.57,6.64 3.93,9.93 c 0.57,3.27 5.5,12.64 4.04,15.33 c -5.86,-15.06 -11.11,-30.73 -20.05,-44.47 c -6.97,-8.8 -11.81,-18.13 -21.41,-24.58 c -7.79,-5.67 -16.49,-8.33 -26.11,-7.99 c -4.53,0.8 -9.01,1.77 -13.46,2.9 c 1.99,-2.38 7.64,-2.42 10.54,-3.9 c 7.77,-1.07 13.32,0.29 20.68,2.39 Z M 461.07,420.39 c 0.21,-0.14 0.42,-0.28 0.63,-0.42 c 0.73,2.02 -9.5,21.27 -10.33,24.98 c -4.52,16.05 -9.64,33.74 -7.26,50.54 c 0.16,5.13 1.56,10.18 6.55,12.55 c 6.81,2.66 13.57,5.46 20.28,8.39 c 7.62,3.86 15.27,7.68 22.94,11.45 c 0.55,0.23 0.93,0.63 1.12,1.2 c -1.78,-0.25 -3.49,-0.76 -5.13,-1.53 c -8.85,-4 -17.59,-8.24 -26.22,-12.72 c -0.77,-0.22 -4.13,-1.87 -3.72,0.14 c -0.25,-0.12 -0.5,-0.24 -0.75,-0.35 c -1.37,-0.67 -2.75,-1.31 -4.13,-1.94 c -0.23,-0.31 -0.54,-0.48 -0.94,-0.5 c -3.23,-1.25 -6.34,-2.73 -9.36,-4.43 c -1.11,-2.71 -2.09,-5.47 -2.95,-8.29 c -0.16,-6.7 -0.66,-14.41 0.88,-20.95 c -0.05,-1.33 -0.06,-2.66 -0.03,-3.99 c 0.7,-3.99 1.51,-7.95 2.44,-11.88 c 0.24,-1.73 4.34,-12.6 2.18,-12.98 c 1.36,-4.61 2.98,-9.12 4.87,-13.54 c 0.69,0.01 1.28,-0.24 1.75,-0.75 c 2.51,-4.57 4.31,-10.81 7.18,-14.98 Z M 386.07,509.98 c 0.4,-0.03 0.76,0.08 1.08,0.33 c 7.77,5.79 16.21,10.29 25.34,13.5 c 0.59,0.04 1.12,-0.13 1.57,-0.51 c 0.28,0.14 0.57,0.27 0.85,0.4 c 0.69,0.23 1.29,0.58 1.81,1.05 c -0.39,0.33 -0.43,0.67 -0.11,1.03 c 3.44,1.48 6.81,3.13 10.1,4.93 c 9.37,4.46 18.83,8.68 28.38,12.65 c 7.1,3.69 14.32,7.13 21.65,10.33 c 6.59,2.39 13.03,5.43 19.28,8.65 c 4.23,1.52 8.1,2.58 12.49,3.34 c 2.95,0.01 5.9,0.01 8.84,0.01 c 0.63,-0.4 0.86,-0.99 0.67,-1.75 c 0.97,-0.17 1.94,-0.35 2.91,-0.54 c 3.37,-0.76 6.65,-1.8 9.84,-3.12 c 1.08,0.26 2.16,0.52 3.24,0.79 c -8.35,6.38 -24.74,7.69 -34.58,3.86 c -33.76,-14.05 -66.35,-30.59 -99.87,-45.19 c -2.74,-1.34 -13.42,-6.56 -13.49,-9.76 Z"/></g>
<g><path fill="#86792a" d="M 454.11,512.18 c 0.4,0.02 0.71,0.19 0.94,0.5 c -0.36,0.1 -0.72,0.2 -1.08,0.3 c 0.05,-0.27 0.1,-0.54 0.14,-0.8 Z"/></g>
<g><path fill="#231902" d="M 515.91,536.21 c 3.6,-0.79 7.11,-1.87 10.52,-3.24 c 12.6,-5.49 25.26,-10.83 37.99,-16.01 c 3.22,-1.59 6.4,-3.25 9.54,-4.99 c 3.89,-1.57 6.77,-4.21 8.64,-7.91 c 3.2,-13.01 -0.19,-30 -2.62,-43.06 c -0.1,-0.74 -0.24,-1.47 -0.43,-2.19 c -3.94,-16.17 -10.13,-31.43 -18.56,-45.78 c -3.43,-5.8 -7.42,-11.2 -11.96,-16.18 c -2.41,-2.88 -5.05,-5.52 -7.91,-7.94 c -3.93,-3.38 -8.23,-6.16 -12.93,-8.35 c -26.95,-12.2 -51.27,9.7 -64.23,31.45 c -0.49,0.13 -0.83,-0.03 -1.01,-0.5 c 0.96,-1.82 1.78,-3.71 2.46,-5.66 c 5.38,-10.89 17.96,-20.55 28.4,-26.32 c 13.35,-7.45 34.81,-4.97 45.39,5.96 c 10.14,6.39 22.97,23.33 27.29,34.31 c 1.23,1.61 6.67,11.1 6.21,12.73 c 2.99,3.46 3.95,12.35 6.24,14.1 c 0.59,6.69 2.75,13.47 4.6,19.94 c -0.65,0.43 -0.92,1.01 -0.8,1.77 c 1.38,3.68 2.02,9.26 2.47,13.2 c 1.03,6.32 -1.14,16.47 0.64,21.82 c -3.73,10.25 -23.23,17.3 -32.9,20.4 c -3.42,1.31 -11.08,6.33 -14.49,6.01 c -4.87,1.66 -17.44,10.68 -22.55,6.44 Z M 462.01,415.36 c -0.67,1.2 -1.34,2.4 -2.02,3.59 c -3.04,5.53 -5.66,11.25 -7.85,17.17 c -1.89,4.42 -3.51,8.93 -4.87,13.54 c -4.13,13.31 -6.51,26.92 -7.15,40.84 c 0.12,5.37 -0.62,13.9 4.63,17.25 c 3.02,1.7 6.13,3.18 9.36,4.43 c -0.04,0.26 -0.09,0.53 -0.14,0.8 c -3.49,0.98 -11.82,-3.12 -13.62,-6.77 c -1.93,-3.31 -4.75,-14.73 -1.94,-17.74 c -0.39,-0.44 -0.67,-0.91 -0.85,-1.41 c 1.9,-1.89 1.56,-12.39 2.37,-15.47 c 0.82,-8.13 4.26,-18.81 7.04,-27.15 c 2.08,-8.52 7.69,-23.05 14.01,-29.89 c 0.78,-0.33 1.12,-0.06 1.03,0.81 Z"/></g>
<g><path fill="#2c2202" d="M 459.18,514.62 c 0.25,0.11 0.5,0.23 0.75,0.35 c 6.7,3.3 13.46,6.46 20.29,9.48 c -1.93,0.86 -3.24,-0.42 -5.17,1.02 c -1.38,-1.42 -11.58,-7.06 -13.14,-6.58 c -0.13,-1.83 -2.15,-2.46 -2.73,-4.27 Z M 418.93,522.71 c 2,1.27 5.32,2.41 5.36,5.21 c -2.45,-1.25 -4.97,-2.31 -7.57,-3.17 c -0.52,-0.47 -1.12,-0.82 -1.81,-1.05 c 1.3,-0.43 2.64,-0.76 4.02,-0.99 Z M 496.12,531.74 c 3.87,1.76 7.86,3.23 11.95,4.4 c 0.79,4.16 -10.55,-0.69 -11.91,-1.11 c 0.25,-0.99 0.01,-1.84 -0.73,-2.56 c 0.13,-0.34 0.35,-0.58 0.69,-0.73 Z M 437.93,534.36 c 2.45,-1.5 5.41,2.67 7.03,0.2 c 0.45,0.59 0.93,1.14 1.43,1.67 c 2.33,0.97 11.73,5.02 13.63,4.91 c -0.6,1.75 3.95,3.31 1.99,4.15 c -7.96,-3.79 -15.99,-7.43 -24.08,-10.93 Z"/></g>
<g><path fill="#121216" stroke="#121216" stroke-width="0.5" d="M 461.91,518.89 c 1.56,-0.48 11.76,5.16 13.14,6.58 c -0.41,0.18 -0.66,0.48 -0.75,0.92 c 3.7,2.88 1,2.05 1.22,5.68 c -1.29,1.26 -2.66,2.43 -4.11,3.51 c -2.13,-1.11 -4.4,0.44 -2.85,2.86 c -1.52,1.29 -3.2,2.37 -5.04,3.21 c -1.12,-0.52 -2.28,-0.69 -3.5,-0.51 c -1.9,0.11 -11.3,-3.94 -13.63,-4.91 c -0.5,-0.53 -0.98,-1.08 -1.43,-1.67 c 1.5,-0.87 -0.66,-1.63 -0.6,-2.83 c 0.96,-0.74 2.02,-1.29 3.2,-1.66 c 1.27,-2.33 -1.97,-2.74 -3.2,-3.84 c -1.24,-1.45 -0.97,-2.06 0.82,-1.84 c 0.46,0.35 0.92,0.7 1.38,1.04 c 3.25,-1.83 0.89,-4.24 7.35,-4.9 c 3.43,2.2 4.24,-1.07 8,-1.64 Z"/></g>
<g><path fill="#1d1703" d="M 418.93,522.71 c -1.38,0.23 -2.72,0.56 -4.02,0.99 c -0.28,-0.13 -0.57,-0.26 -0.85,-0.4 c -7.67,-4.03 -21.61,-8.76 -27.01,-15.36 c -1.2,-2.32 -1.69,-4.8 -1.47,-7.43 c 0.13,-79.49 0.11,-158.98 -0.06,-238.47 c 0.01,-15.18 -0.13,-30.36 -0.41,-45.55 c -1.46,-6.98 -7.36,-11.93 -14.61,-11.6 c -42.17,-0.02 -84.34,0.04 -126.5,0.18 c -6.95,1.45 -12.52,7.04 -12.23,14.43 c -0.02,195.67 0.01,391.34 0.07,587 c 0.63,6.02 4.73,11.02 10.66,12.5 c 14.66,0.2 29.33,0.29 44,0.27 c 4.49,0.02 8.98,-0.17 13.45,-0.56 c 42.34,-6.4 82.4,-34.79 85.47,-80.53 c 0.26,-25.22 0.4,-50.45 0.41,-75.68 c 0.77,-7.37 6.89,-7.24 12.68,-7.45 c 68.66,0.2 137.32,0.26 205.99,0.16 c 2.5,0.08 4.98,0.29 7.45,0.65 c 3.01,0.48 5.87,1.41 8.58,2.8 c -0.54,1.58 2.83,3.23 1.01,3.92 c -16.24,-5.84 -34.27,-3.37 -51.2,-3.44 c -56.61,-1.06 -113.28,0.51 -169.89,-0.72 c -7.94,-0.08 -11.66,1.24 -11.94,10.03 c 0.25,20.41 0.48,40.83 0.68,61.25 c 0.35,21.35 -10.78,46.1 -25.89,61.16 c -18.94,16.07 -42.49,30.18 -68.79,31.18 c -15.28,-0.98 -29.77,-0.69 -45.04,0.14 c -4.28,0.31 -15.89,-2.92 -16.45,-7.54 c -1.8,-2.33 -3.19,-2.92 -3.78,-6.07 c -0.24,-8.36 -0.68,-16.7 -1.31,-25.04 c 2.04,-27.21 0.25,-54.72 1.29,-82.03 c -0.17,-159 -0.28,-318 -0.32,-477 c -0.59,-12.42 7.26,-23.99 20.66,-23.28 c 40.5,0.04 80.99,0.05 121.48,0.05 c 12.05,0.5 18.4,9.73 17.79,21.22 c 0.05,92.67 0.93,185.46 -0.25,278.08 c 0.46,14.04 21.38,14.57 30.35,22.14 Z M 632.87,669.78 c 2.58,3.7 4.25,7.78 5.01,12.23 c 0.43,5.82 0.61,11.65 0.55,17.49 c -0.05,35.32 -0.04,70.63 0.04,105.95 c 0.84,9.12 5.85,13.79 15.03,13.99 c 40,-0.11 80,-0.1 120,0.01 c 2.41,0.04 4.81,-0.08 7.21,-0.34 c 8.84,-1.47 11.97,-8.26 11.53,-16.61 c -0.09,-193.33 -0.11,-386.67 -0.08,-580 c 0.08,-2.17 -0.04,-4.33 -0.36,-6.48 c -1.66,-5.83 -5.42,-9.51 -11.29,-11.04 c -33.74,-1.72 -69.83,11.2 -99.63,26.19 c -11.36,6.97 -21.35,14.67 -28.91,25.8 c -8.53,12.6 -12.63,27.85 -13.29,42.95 c -0.95,3.09 -0.59,6.36 -0.71,9.58 c -0.08,65.1 0.01,130.19 0.28,195.26 c -0.91,4.56 -5.89,6.71 -9.45,8.9 c -3.5,1.73 -6.93,3.62 -10.27,5.66 c -2.16,-2.72 13.24,-9.74 15.1,-11.98 c 6.08,-5.98 1.34,-52.65 1.2,-63.16 c -0.07,-51.35 -0.97,-104.36 1.8,-155.47 c 9.65,-56.72 70.79,-76.96 120.39,-84.94 c 17.34,0.31 38.97,-5.64 39.52,18.79 c -1.09,114.24 0.79,228.48 -0.12,342.76 c -3.13,1.71 1.18,13.64 0.26,17.27 c 1.29,15.71 -2.3,62.96 1.83,74.8 c -1.54,1.84 -1.04,3.54 -1.29,5.77 c -1.05,33.22 -0.44,66.34 -0.47,99.57 c 0.38,13.71 -1.74,29.23 0.74,42.65 c -1.83,3.34 -2.79,6.93 -2.87,10.77 c -7.27,5.26 -11.43,6.96 -20.75,6.96 c -31.8,-0.03 -63.59,-0.1 -95.38,-0.21 c -14.1,0.1 -42.39,4.67 -42.28,-17.47 c -0.04,-39.33 -0.19,-78.67 -0.46,-118.01 c -0.08,-5.54 -1.96,-12.74 -6.1,-16.9 c 0.98,-0.56 2.06,-0.81 3.22,-0.74 Z M 551.01,551.58 c -4.54,1.94 -9.08,3.88 -13.63,5.81 c 1.52,-5.03 9.36,-8.01 13.63,-5.81 Z M 531.98,559.77 c -0.41,0.17 -0.81,0.34 -1.21,0.51 c -3.19,1.32 -6.47,2.36 -9.84,3.12 c -0.83,0.02 -1.46,-0.32 -1.88,-1.02 c -0.08,-1.23 0.4,-1.51 1.44,-0.85 c 1.99,-0.91 9.93,-3.1 11.49,-1.76 Z"/></g>
<g><path fill="#2d2301" d="M 482.49,552.56 c 1.73,-0.56 10.53,3.62 8.89,5.99 c -4.5,-2.09 -9.02,-4.12 -13.57,-6.09 c 2.32,-1.51 2.46,-1.34 4.68,0.1 Z"/></g>
<g><path fill="#0e0c0d" stroke="#0e0c0d" stroke-width="0.5" d="M 475.05,525.47 c 1.93,-1.44 3.24,-0.16 5.17,-1.02 c 5.28,2.48 10.57,4.91 15.9,7.29 c -0.34,0.15 -0.56,0.39 -0.69,0.73 c 0.74,0.72 0.98,1.57 0.73,2.56 c -1.85,6.16 -3.71,3.41 -7.87,6.75 c 0.09,0.72 0.47,1.27 1.15,1.65 c -1.88,1.76 -4.23,0.52 -6.28,1.4 c -0.62,2.55 -0.84,5.12 -0.67,7.73 c -2.22,-1.44 -2.36,-1.61 -4.68,-0.1 c -5.29,-2.35 -10.55,-4.74 -15.8,-7.17 c 1.96,-0.84 -2.59,-2.4 -1.99,-4.15 c 1.22,-0.18 2.38,-0.01 3.5,0.51 c 1.84,-0.84 3.52,-1.92 5.04,-3.21 c -1.55,-2.42 0.72,-3.97 2.85,-2.86 c 1.45,-1.08 2.82,-2.25 4.11,-3.51 c -0.22,-3.63 2.48,-2.8 -1.22,-5.68 c 0.09,-0.44 0.34,-0.74 0.75,-0.92 Z"/></g>
</svg>
